<svg width="17" height="17" viewBox="0 0 17 17" fill="none" xmlns="http://www.w3.org/2000/svg">
<path d="M8.5 13C10.9853 13 13 10.9853 13 8.5C13 6.01472 10.9853 4 8.5 4C6.01472 4 4 6.01472 4 8.5C4 10.9853 6.01472 13 8.5 13Z" fill="#FFD219"/>
<path fill-rule="evenodd" clip-rule="evenodd" d="M8.5 0C8.77614 0 9 0.223858 9 0.5V2.5C9 2.77614 8.77614 3 8.5 3C8.22386 3 8 2.77614 8 2.5V0.5C8 0.223858 8.22386 0 8.5 0Z" fill="#FFD219"/>
<path fill-rule="evenodd" clip-rule="evenodd" d="M8.5 14C8.77614 14 9 14.2239 9 14.5V16.5C9 16.7761 8.77614 17 8.5 17C8.22386 17 8 16.7761 8 16.5V14.5C8 14.2239 8.22386 14 8.5 14Z" fill="#FFD219"/>
<path fill-rule="evenodd" clip-rule="evenodd" d="M14 8.5C14 8.77614 14.2239 9 14.5 9H16.5C16.7761 9 17 8.77614 17 8.5C17 8.22386 16.7761 8 16.5 8H14.5C14.2239 8 14 8.22386 14 8.5Z" fill="#FFD219"/>
<path fill-rule="evenodd" clip-rule="evenodd" d="M0 8.5C0 8.77614 0.223858 9 0.5 9H2.5C2.77614 9 3 8.77614 3 8.5C3 8.22386 2.77614 8 2.5 8H0.5C0.223858 8 0 8.22386 0 8.5Z" fill="#FFD219"/>
<path fill-rule="evenodd" clip-rule="evenodd" d="M13.6859 2.31428C13.8624 2.49081 13.8624 2.77703 13.6859 2.95356L12.4081 4.23131C12.2316 4.40784 11.9454 4.40784 11.7689 4.23131C11.5923 4.05477 11.5923 3.76856 11.7689 3.59203L13.0466 2.31428C13.2232 2.13775 13.5094 2.13775 13.6859 2.31428Z" fill="#FFD219"/>
<path fill-rule="evenodd" clip-rule="evenodd" d="M4.23131 12.7689C4.40784 12.9454 4.40784 13.2316 4.23131 13.4081L2.95356 14.6859C2.77703 14.8624 2.49081 14.8624 2.31428 14.6859C2.13775 14.5094 2.13775 14.2232 2.31428 14.0466L3.59203 12.7689C3.76856 12.5923 4.05477 12.5923 4.23131 12.7689Z" fill="#FFD219"/>
<path fill-rule="evenodd" clip-rule="evenodd" d="M11.7689 12.7689C11.9454 12.5923 12.2316 12.5923 12.4081 12.7689L13.6859 14.0466C13.8624 14.2232 13.8624 14.5094 13.6859 14.6859C13.5094 14.8624 13.2232 14.8624 13.0466 14.6859L11.7689 13.4081C11.5923 13.2316 11.5923 12.9454 11.7689 12.7689Z" fill="#FFD219"/>
<path fill-rule="evenodd" clip-rule="evenodd" d="M2.31428 2.31428C2.49081 2.13775 2.77703 2.13775 2.95356 2.31428L4.23131 3.59203C4.40784 3.76856 4.40784 4.05477 4.23131 4.23131C4.05477 4.40784 3.76856 4.40784 3.59203 4.23131L2.31428 2.95356C2.13775 2.77703 2.13775 2.49081 2.31428 2.31428Z" fill="#FFD219"/>
</svg>
