<svg width="18" height="18" viewBox="0 0 18 18" fill="none" xmlns="http://www.w3.org/2000/svg">
<path d="M17.21 12.3201C16.6262 13.7063 15.6874 14.9143 14.4882 15.8222C13.2891 16.7302 11.8718 17.3062 10.3792 17.4921C8.8866 17.6781 7.37135 17.4674 5.98605 16.8814C4.60076 16.2954 3.39434 15.3547 2.48828 14.1541C1.58222 12.9535 1.00853 11.5353 0.824969 10.0424C0.641411 8.54952 0.85447 7.03461 1.44269 5.65025C2.03091 4.2659 2.97353 3.06098 4.1756 2.15684C5.37767 1.25271 6.79676 0.681281 8.28996 0.50011C8.39355 0.487739 8.49842 0.508083 8.58987 0.558293C8.68133 0.608503 8.75479 0.686064 8.79996 0.78011C8.8472 0.87242 8.86394 0.977337 8.84776 1.07976C8.83159 1.18219 8.78334 1.27685 8.70996 1.35011C8.09699 1.95821 7.61215 2.68302 7.28409 3.4817C6.95603 4.28038 6.79141 5.13672 6.79996 6.00011C6.80876 7.13496 7.11138 8.24818 7.67833 9.23131C8.24529 10.2144 9.05724 11.0339 10.0351 11.61C11.0129 12.186 12.1233 12.4989 13.258 12.5182C14.3927 12.5375 15.5131 12.2625 16.51 11.7201C16.6025 11.6723 16.7073 11.6535 16.8107 11.666C16.9141 11.6784 17.0114 11.7217 17.09 11.7901C17.1569 11.8588 17.2035 11.9447 17.2247 12.0382C17.2459 12.1317 17.2408 12.2293 17.21 12.3201Z" fill="#FFD219"/>
</svg>
